<svg width="24" height="24" viewBox="0 0 24 24" fill="none" xmlns="http://www.w3.org/2000/svg">
<path d="M9.24985 9.05023C11.0298 9.70023 12.9698 9.70023 14.7498 9.05023" stroke="#292D32" stroke-width="1.5" stroke-linecap="round" stroke-linejoin="round"/>
<path d="M16.8198 1.99969H7.17976C5.04976 1.99969 3.31976 3.7397 3.31976 5.85969V19.9497C3.31976 21.7497 4.60976 22.5097 6.18976 21.6397L11.0698 18.9297C11.5898 18.6397 12.4298 18.6397 12.9398 18.9297L17.8198 21.6397C19.3998 22.5197 20.6898 21.7597 20.6898 19.9497V5.85969C20.6798 3.7397 18.9498 1.99969 16.8198 1.99969Z" stroke="#292D32" stroke-width="1.5" stroke-linecap="round" stroke-linejoin="round"/>
<path d="M16.8198 1.99969H7.17976C5.04976 1.99969 3.31976 3.7397 3.31976 5.85969V19.9497C3.31976 21.7497 4.60976 22.5097 6.18976 21.6397L11.0698 18.9297C11.5898 18.6397 12.4298 18.6397 12.9398 18.9297L17.8198 21.6397C19.3998 22.5197 20.6898 21.7597 20.6898 19.9497V5.85969C20.6798 3.7397 18.9498 1.99969 16.8198 1.99969Z" stroke="#292D32" stroke-width="1.5" stroke-linecap="round" stroke-linejoin="round"/>
</svg>
