<svg width="24" height="24" viewBox="0 0 24 24" fill="none" xmlns="http://www.w3.org/2000/svg">
<path d="M10.49 2.23L5.5 4.11C4.35 4.54 3.41 5.9 3.41 7.12V14.55C3.41 15.73 4.19 17.28 5.14 17.99L9.44 21.2C10.85 22.26 13.17 22.26 14.58 21.2L18.88 17.99C19.83 17.28 20.61 15.73 20.61 14.55V7.12C20.61 5.89 19.67 4.53 18.52 4.1L13.53 2.23C12.68 1.92 11.32 1.92 10.49 2.23Z" stroke="#292D32" stroke-width="1.5" stroke-linecap="round" stroke-linejoin="round"/>
<path d="M13.9583 14.9083H10.0416C9.86663 14.9083 9.67079 14.7708 9.61246 14.6042L7.88746 9.77917C7.64163 9.0875 7.92913 8.875 8.52079 9.3L10.1458 10.4625C10.4166 10.65 10.725 10.5542 10.8416 10.25L11.575 8.29584C11.8083 7.67084 12.1958 7.67084 12.4291 8.29584L13.1625 10.25C13.2791 10.5542 13.5875 10.65 13.8541 10.4625L15.3791 9.375C16.0291 8.90834 16.3416 9.14584 16.075 9.9L14.3916 14.6125C14.3291 14.7708 14.1333 14.9083 13.9583 14.9083Z" stroke="#292D32" stroke-width="0.625" stroke-linecap="round" stroke-linejoin="round"/>
<path d="M9.70828 16.1667H14.2916" stroke="#292D32" stroke-width="0.625" stroke-linecap="round" stroke-linejoin="round"/>
<path d="M10.9583 12.8333H13.0416" stroke="#292D32" stroke-width="0.625" stroke-linecap="round" stroke-linejoin="round"/>
</svg>
