<svg width="24" height="24" viewBox="0 0 24 24" fill="none" xmlns="http://www.w3.org/2000/svg">
<path d="M12 22C17.5 22 22 17.5 22 12C22 6.5 17.5 2 12 2C6.5 2 2 6.5 2 12C2 17.5 6.5 22 12 22Z" stroke="#292D32" stroke-width="1.5" stroke-miterlimit="10"/>
<path d="M10.7902 13.37H12.2752L12.7702 6.69501H10.2952L10.7902 13.37ZM11.5252 17.18C12.2602 17.18 12.8602 16.55 12.8602 15.785C12.8602 15.08 12.2602 14.45 11.5252 14.45C10.7452 14.45 10.1302 15.08 10.1302 15.785C10.1302 16.55 10.7452 17.18 11.5252 17.18Z" fill="#292D32"/>
</svg>
