<svg width="13" height="13" viewBox="0 0 13 13" fill="none" xmlns="http://www.w3.org/2000/svg">
<path d="M2.16065 7.94109L1.33732 7.11775C1.00149 6.78191 1.00149 6.22941 1.33732 5.89357L2.16065 5.07023C2.30148 4.9294 2.41524 4.65314 2.41524 4.45814V3.29355C2.41524 2.81688 2.80524 2.42689 3.28191 2.42689H4.44649C4.64149 2.42689 4.91774 2.31316 5.05857 2.17233L5.8819 1.34898C6.21773 1.01315 6.77024 1.01315 7.10607 1.34898L7.92942 2.17233C8.07025 2.31316 8.34648 2.42689 8.54148 2.42689H9.70608C10.1827 2.42689 10.5727 2.81688 10.5727 3.29355V4.45814C10.5727 4.65314 10.6865 4.9294 10.8273 5.07023L11.6507 5.89357C11.9865 6.22941 11.9865 6.78191 11.6507 7.11775L10.8273 7.94109C10.6865 8.08192 10.5727 8.35818 10.5727 8.55318V9.71771C10.5727 10.1944 10.1827 10.5844 9.70608 10.5844H8.54148C8.34648 10.5844 8.07025 10.6982 7.92942 10.839L7.10607 11.6623C6.77024 11.9982 6.21773 11.9982 5.8819 11.6623L5.05857 10.839C4.91774 10.6982 4.64149 10.5844 4.44649 10.5844H3.28191C2.80524 10.5844 2.41524 10.1944 2.41524 9.71771V8.55318C2.41524 8.35276 2.30148 8.07651 2.16065 7.94109Z" stroke="#292D32" stroke-width="0.8125" stroke-linecap="round" stroke-linejoin="round"/>
<path d="M4.875 8.125L8.125 4.875" stroke="#292D32" stroke-width="0.8125" stroke-linecap="round" stroke-linejoin="round"/>
<path d="M7.8512 7.85415H7.85607" stroke="#292D32" stroke-width="1.08333" stroke-linecap="round" stroke-linejoin="round"/>
<path d="M5.14286 5.14583H5.14772" stroke="#292D32" stroke-width="1.08333" stroke-linecap="round" stroke-linejoin="round"/>
</svg>
