<svg width="12" height="12" viewBox="0 0 12 12" fill="none" xmlns="http://www.w3.org/2000/svg">
<path d="M6.58578 0.368168L7.92167 3.05273C8.02009 3.24723 8.20793 3.3823 8.42458 3.41232L11.4252 3.84934C11.6005 3.87395 11.7595 3.9664 11.8669 4.10747C11.9731 4.24674 12.0187 4.42323 11.9929 4.59672C11.9719 4.74079 11.9041 4.87406 11.8003 4.97611L9.62603 7.08378C9.467 7.23086 9.39498 7.44877 9.43339 7.66188L9.96871 10.625C10.0257 10.9828 9.78867 11.3201 9.43339 11.388C9.28696 11.4114 9.13693 11.3868 9.0049 11.3195L6.32833 9.92503C6.12968 9.82478 5.89503 9.82478 5.69639 9.92503L3.01982 11.3195C2.69094 11.4942 2.28346 11.3754 2.10042 11.0512C2.0326 10.9221 2.0086 10.7751 2.0308 10.6316L2.56612 7.66788C2.60453 7.45537 2.53191 7.23626 2.37348 7.08918L0.19921 4.98271C-0.0594455 4.73299 -0.0672472 4.32178 0.181806 4.06305C0.187207 4.05764 0.193209 4.05164 0.19921 4.04564C0.302432 3.94058 0.438061 3.87395 0.584493 3.85654L3.58514 3.41892C3.80118 3.3883 3.98902 3.25444 4.08805 3.05874L5.37592 0.368168C5.49055 0.137651 5.7282 -0.00582173 5.98625 0.000181323H6.06667C6.29052 0.0271951 6.48556 0.165866 6.58578 0.368168Z" fill="#292D32"/>
</svg>
