<svg width="22" height="18" viewBox="0 0 22 18" fill="none" xmlns="http://www.w3.org/2000/svg">
<path d="M18.5 9.97005C19.43 9.97005 20.28 10.2501 21 10.7301V5.97005C21 4.87005 20.1 3.97005 19 3.97005H12.71L11.65 2.91005L12.71 1.85005C12.91 1.65005 12.91 1.34005 12.71 1.14005C12.51 0.940051 12.2 0.940051 12 1.14005L9.16999 3.97005C8.96999 4.17005 8.96999 4.48005 9.16999 4.68005C9.36999 4.88005 9.67999 4.88005 9.87999 4.68005L10.94 3.62005L12 4.68005V6.97005C12 8.07005 11.1 8.97005 9.99999 8.97005H9.45999C10.41 10.0301 11 11.4301 11 12.9701C11 13.3101 10.96 13.6401 10.91 13.9701H14.05C14.3 11.7301 16.19 9.97005 18.5 9.97005Z" fill="#292D32"/>
<path d="M18.5 10.97C16.57 10.97 15 12.54 15 14.47C15 16.4 16.57 17.97 18.5 17.97C20.43 17.97 22 16.4 22 14.47C22 12.54 20.43 10.97 18.5 10.97ZM18.5 15.97C17.67 15.97 17 15.3 17 14.47C17 13.64 17.67 12.97 18.5 12.97C19.33 12.97 20 13.64 20 14.47C20 15.3 19.33 15.97 18.5 15.97Z" fill="#292D32"/>
<path d="M2.99997 6.97003H7.99997C7.99997 5.87003 7.09997 4.97003 5.99997 4.97003H2.99997C2.44997 4.97003 1.99997 5.42003 1.99997 5.97003C1.99997 6.53003 2.44997 6.97003 2.99997 6.97003Z" fill="#292D32"/>
<path d="M8.82997 11.79L8.64997 11.32L9.57997 10.97C9.11997 9.91003 8.29997 9.06003 7.26997 8.54003L6.86997 9.43003L6.40997 9.22003L6.80997 8.32003C6.25997 8.11003 5.63997 7.97003 4.99997 7.97003C4.46997 7.97003 3.95997 8.08003 3.47997 8.23003L3.81997 9.14003L3.34997 9.32003L2.99997 8.40003C1.93997 8.86003 1.08997 9.68003 0.56997 10.71L1.45997 11.11L1.24997 11.57L0.34997 11.17C0.12997 11.72 -3.05176e-05 12.33 -3.05176e-05 12.97C-3.05176e-05 13.5 0.109969 14.01 0.259969 14.49L1.16997 14.15L1.34997 14.62L0.419969 14.97C0.879969 16.03 1.69997 16.88 2.72997 17.4L3.12997 16.51L3.58997 16.72L3.18997 17.62C3.75997 17.84 4.36997 17.97 5.00997 17.97C5.53997 17.97 6.04997 17.86 6.52997 17.71L6.17997 16.8L6.64997 16.62L6.99997 17.55C8.05997 17.09 8.90997 16.27 9.42997 15.24L8.53997 14.84L8.74997 14.38L9.64997 14.78C9.86997 14.21 9.99997 13.6 9.99997 12.96C9.99997 12.43 9.88997 11.92 9.73997 11.44L8.82997 11.79ZM6.14997 15.75C4.61997 16.38 2.85997 15.66 2.22997 14.13C1.59997 12.6 2.31997 10.84 3.84997 10.21C5.37997 9.58003 7.13997 10.3 7.76997 11.83C8.40997 13.36 7.67997 15.11 6.14997 15.75Z" fill="#292D32"/>
</svg>
